<mxfile host="app.diagrams.net" modified="2023-11-24T07:59:45.635Z" agent="Mozilla/5.0 (Windows NT 10.0; Win64; x64) AppleWebKit/537.36 (KHTML, like Gecko) Chrome/119.0.0.0 Safari/537.36" etag="96QRQw1vb348rbU5Eydy" version="22.1.3" type="device">
  <diagram name="1 oldal" id="6hVa5__1eOVqnCU0VaBR">
    <mxGraphModel dx="1134" dy="673" grid="1" gridSize="10" guides="1" tooltips="1" connect="1" arrows="1" fold="1" page="1" pageScale="1" pageWidth="2500" pageHeight="1500" math="0" shadow="0">
      <root>
        <mxCell id="0" />
        <mxCell id="1" parent="0" />
        <mxCell id="TZrsvxpgwlqgJpduMYWX-1" value="" style="whiteSpace=wrap;html=1;aspect=fixed;" vertex="1" parent="1">
          <mxGeometry x="120" y="120" width="290" height="290" as="geometry" />
        </mxCell>
        <mxCell id="TZrsvxpgwlqgJpduMYWX-2" value="UART" style="text;html=1;strokeColor=none;fillColor=none;align=center;verticalAlign=middle;whiteSpace=wrap;rounded=0;" vertex="1" parent="1">
          <mxGeometry x="235" y="130" width="60" height="30" as="geometry" />
        </mxCell>
        <mxCell id="TZrsvxpgwlqgJpduMYWX-3" value="TX" style="text;html=1;strokeColor=none;fillColor=none;align=center;verticalAlign=middle;whiteSpace=wrap;rounded=0;" vertex="1" parent="1">
          <mxGeometry x="130" y="170" width="60" height="30" as="geometry" />
        </mxCell>
        <mxCell id="TZrsvxpgwlqgJpduMYWX-4" value="RX" style="text;html=1;strokeColor=none;fillColor=none;align=center;verticalAlign=middle;whiteSpace=wrap;rounded=0;" vertex="1" parent="1">
          <mxGeometry x="130" y="210" width="60" height="30" as="geometry" />
        </mxCell>
        <mxCell id="TZrsvxpgwlqgJpduMYWX-5" value="CLK" style="text;html=1;strokeColor=none;fillColor=none;align=center;verticalAlign=middle;whiteSpace=wrap;rounded=0;" vertex="1" parent="1">
          <mxGeometry x="130" y="320" width="60" height="30" as="geometry" />
        </mxCell>
        <mxCell id="TZrsvxpgwlqgJpduMYWX-6" value="RST_N" style="text;html=1;strokeColor=none;fillColor=none;align=center;verticalAlign=middle;whiteSpace=wrap;rounded=0;" vertex="1" parent="1">
          <mxGeometry x="235" y="370" width="60" height="30" as="geometry" />
        </mxCell>
        <mxCell id="TZrsvxpgwlqgJpduMYWX-7" value="D_OUT" style="text;html=1;strokeColor=none;fillColor=none;align=center;verticalAlign=middle;whiteSpace=wrap;rounded=0;" vertex="1" parent="1">
          <mxGeometry x="340" y="170" width="60" height="30" as="geometry" />
        </mxCell>
        <mxCell id="TZrsvxpgwlqgJpduMYWX-8" value="D_VAL" style="text;html=1;strokeColor=none;fillColor=none;align=center;verticalAlign=middle;whiteSpace=wrap;rounded=0;" vertex="1" parent="1">
          <mxGeometry x="340" y="210" width="60" height="30" as="geometry" />
        </mxCell>
        <mxCell id="TZrsvxpgwlqgJpduMYWX-9" value="D_IN" style="text;html=1;strokeColor=none;fillColor=none;align=center;verticalAlign=middle;whiteSpace=wrap;rounded=0;" vertex="1" parent="1">
          <mxGeometry x="340" y="280" width="60" height="30" as="geometry" />
        </mxCell>
        <mxCell id="TZrsvxpgwlqgJpduMYWX-10" value="D_REC" style="text;html=1;strokeColor=none;fillColor=none;align=center;verticalAlign=middle;whiteSpace=wrap;rounded=0;" vertex="1" parent="1">
          <mxGeometry x="340" y="320" width="60" height="30" as="geometry" />
        </mxCell>
        <mxCell id="TZrsvxpgwlqgJpduMYWX-11" value="" style="rounded=0;whiteSpace=wrap;html=1;" vertex="1" parent="1">
          <mxGeometry x="510" y="120" width="460" height="290" as="geometry" />
        </mxCell>
        <mxCell id="TZrsvxpgwlqgJpduMYWX-13" value="" style="rounded=0;whiteSpace=wrap;html=1;" vertex="1" parent="1">
          <mxGeometry x="600" y="185" width="160" height="80" as="geometry" />
        </mxCell>
        <mxCell id="TZrsvxpgwlqgJpduMYWX-14" value="ADDRESS_DECODER" style="text;html=1;strokeColor=none;fillColor=none;align=center;verticalAlign=middle;whiteSpace=wrap;rounded=0;" vertex="1" parent="1">
          <mxGeometry x="710" y="125" width="60" height="30" as="geometry" />
        </mxCell>
        <mxCell id="TZrsvxpgwlqgJpduMYWX-15" value="FSM" style="text;html=1;strokeColor=none;fillColor=none;align=center;verticalAlign=middle;whiteSpace=wrap;rounded=0;" vertex="1" parent="1">
          <mxGeometry x="650" y="185" width="60" height="30" as="geometry" />
        </mxCell>
        <mxCell id="TZrsvxpgwlqgJpduMYWX-17" value="D_IN" style="text;html=1;strokeColor=none;fillColor=none;align=center;verticalAlign=middle;whiteSpace=wrap;rounded=0;" vertex="1" parent="1">
          <mxGeometry x="600" y="205" width="60" height="30" as="geometry" />
        </mxCell>
        <mxCell id="TZrsvxpgwlqgJpduMYWX-18" value="D_REC" style="text;html=1;strokeColor=none;fillColor=none;align=center;verticalAlign=middle;whiteSpace=wrap;rounded=0;" vertex="1" parent="1">
          <mxGeometry x="600" y="235" width="60" height="30" as="geometry" />
        </mxCell>
        <mxCell id="TZrsvxpgwlqgJpduMYWX-19" value="D_OUT" style="text;html=1;strokeColor=none;fillColor=none;align=center;verticalAlign=middle;whiteSpace=wrap;rounded=0;" vertex="1" parent="1">
          <mxGeometry x="700" y="205" width="60" height="30" as="geometry" />
        </mxCell>
        <mxCell id="TZrsvxpgwlqgJpduMYWX-20" value="D_VAL" style="text;html=1;strokeColor=none;fillColor=none;align=center;verticalAlign=middle;whiteSpace=wrap;rounded=0;" vertex="1" parent="1">
          <mxGeometry x="700" y="235" width="60" height="30" as="geometry" />
        </mxCell>
        <mxCell id="TZrsvxpgwlqgJpduMYWX-21" value="ADDRESS" style="text;html=1;strokeColor=none;fillColor=none;align=center;verticalAlign=middle;whiteSpace=wrap;rounded=0;" vertex="1" parent="1">
          <mxGeometry x="900" y="185" width="60" height="30" as="geometry" />
        </mxCell>
        <mxCell id="TZrsvxpgwlqgJpduMYWX-25" value="WR" style="text;html=1;strokeColor=none;fillColor=none;align=center;verticalAlign=middle;whiteSpace=wrap;rounded=0;" vertex="1" parent="1">
          <mxGeometry x="900" y="345" width="60" height="30" as="geometry" />
        </mxCell>
        <mxCell id="TZrsvxpgwlqgJpduMYWX-26" value="R_DATA" style="text;html=1;strokeColor=none;fillColor=none;align=center;verticalAlign=middle;whiteSpace=wrap;rounded=0;" vertex="1" parent="1">
          <mxGeometry x="900" y="285" width="60" height="30" as="geometry" />
        </mxCell>
        <mxCell id="TZrsvxpgwlqgJpduMYWX-27" value="W_DATA" style="text;html=1;strokeColor=none;fillColor=none;align=center;verticalAlign=middle;whiteSpace=wrap;rounded=0;" vertex="1" parent="1">
          <mxGeometry x="900" y="215" width="60" height="30" as="geometry" />
        </mxCell>
        <mxCell id="TZrsvxpgwlqgJpduMYWX-28" value="CLK" style="text;html=1;strokeColor=none;fillColor=none;align=center;verticalAlign=middle;whiteSpace=wrap;rounded=0;" vertex="1" parent="1">
          <mxGeometry x="510" y="345" width="60" height="30" as="geometry" />
        </mxCell>
        <mxCell id="TZrsvxpgwlqgJpduMYWX-29" value="RST_N" style="text;html=1;strokeColor=none;fillColor=none;align=center;verticalAlign=middle;whiteSpace=wrap;rounded=0;" vertex="1" parent="1">
          <mxGeometry x="710" y="375" width="60" height="30" as="geometry" />
        </mxCell>
        <mxCell id="TZrsvxpgwlqgJpduMYWX-30" value="" style="rounded=0;whiteSpace=wrap;html=1;" vertex="1" parent="1">
          <mxGeometry x="1080" y="120" width="280" height="120" as="geometry" />
        </mxCell>
        <mxCell id="TZrsvxpgwlqgJpduMYWX-31" value="CHIP_SELECT" style="text;html=1;strokeColor=none;fillColor=none;align=center;verticalAlign=middle;whiteSpace=wrap;rounded=0;" vertex="1" parent="1">
          <mxGeometry x="1190" y="125" width="60" height="30" as="geometry" />
        </mxCell>
        <mxCell id="TZrsvxpgwlqgJpduMYWX-32" value="ADDRESS" style="text;html=1;strokeColor=none;fillColor=none;align=center;verticalAlign=middle;whiteSpace=wrap;rounded=0;" vertex="1" parent="1">
          <mxGeometry x="1090" y="185" width="60" height="30" as="geometry" />
        </mxCell>
        <mxCell id="TZrsvxpgwlqgJpduMYWX-33" value="CSN" style="text;html=1;strokeColor=none;fillColor=none;align=center;verticalAlign=middle;whiteSpace=wrap;rounded=0;" vertex="1" parent="1">
          <mxGeometry x="1290" y="185" width="60" height="30" as="geometry" />
        </mxCell>
        <mxCell id="TZrsvxpgwlqgJpduMYWX-35" value="" style="rounded=0;whiteSpace=wrap;html=1;" vertex="1" parent="1">
          <mxGeometry x="1600" y="120" width="160" height="190" as="geometry" />
        </mxCell>
        <mxCell id="TZrsvxpgwlqgJpduMYWX-36" value="REG_BLOCK" style="text;html=1;strokeColor=none;fillColor=none;align=center;verticalAlign=middle;whiteSpace=wrap;rounded=0;" vertex="1" parent="1">
          <mxGeometry x="1650" y="130" width="60" height="30" as="geometry" />
        </mxCell>
        <mxCell id="TZrsvxpgwlqgJpduMYWX-38" value="" style="whiteSpace=wrap;html=1;aspect=fixed;" vertex="1" parent="1">
          <mxGeometry x="1640" y="185" width="80" height="80" as="geometry" />
        </mxCell>
        <mxCell id="TZrsvxpgwlqgJpduMYWX-40" value="D" style="text;html=1;strokeColor=none;fillColor=none;align=center;verticalAlign=middle;whiteSpace=wrap;rounded=0;" vertex="1" parent="1">
          <mxGeometry x="1620" y="185" width="60" height="30" as="geometry" />
        </mxCell>
        <mxCell id="TZrsvxpgwlqgJpduMYWX-41" value="Q" style="text;html=1;strokeColor=none;fillColor=none;align=center;verticalAlign=middle;whiteSpace=wrap;rounded=0;" vertex="1" parent="1">
          <mxGeometry x="1680" y="185" width="60" height="30" as="geometry" />
        </mxCell>
        <mxCell id="TZrsvxpgwlqgJpduMYWX-43" value="" style="ellipse;whiteSpace=wrap;html=1;" vertex="1" parent="1">
          <mxGeometry x="1420" y="145" width="150" height="95" as="geometry" />
        </mxCell>
        <mxCell id="TZrsvxpgwlqgJpduMYWX-44" value="FFS" style="text;html=1;strokeColor=none;fillColor=none;align=center;verticalAlign=middle;whiteSpace=wrap;rounded=0;" vertex="1" parent="1">
          <mxGeometry x="1457.5" y="167.5" width="75" height="50" as="geometry" />
        </mxCell>
        <mxCell id="TZrsvxpgwlqgJpduMYWX-48" value="" style="ellipse;whiteSpace=wrap;html=1;" vertex="1" parent="1">
          <mxGeometry x="1417.5" y="450" width="155" height="100" as="geometry" />
        </mxCell>
        <mxCell id="TZrsvxpgwlqgJpduMYWX-49" value="FFS" style="text;html=1;strokeColor=none;fillColor=none;align=center;verticalAlign=middle;whiteSpace=wrap;rounded=0;" vertex="1" parent="1">
          <mxGeometry x="1465" y="485" width="60" height="30" as="geometry" />
        </mxCell>
        <mxCell id="TZrsvxpgwlqgJpduMYWX-51" value="" style="endArrow=classic;html=1;rounded=0;" edge="1" parent="1">
          <mxGeometry width="50" height="50" relative="1" as="geometry">
            <mxPoint x="120" y="183.57" as="sourcePoint" />
            <mxPoint x="80" y="183.57" as="targetPoint" />
          </mxGeometry>
        </mxCell>
        <mxCell id="TZrsvxpgwlqgJpduMYWX-54" value="" style="endArrow=classic;html=1;rounded=0;exitX=0;exitY=0.5;exitDx=0;exitDy=0;" edge="1" parent="1" source="TZrsvxpgwlqgJpduMYWX-48">
          <mxGeometry width="50" height="50" relative="1" as="geometry">
            <mxPoint x="1010" y="299.28999999999996" as="sourcePoint" />
            <mxPoint x="970" y="299.28999999999996" as="targetPoint" />
            <Array as="points">
              <mxPoint x="1418" y="299" />
            </Array>
          </mxGeometry>
        </mxCell>
        <mxCell id="TZrsvxpgwlqgJpduMYWX-55" value="" style="endArrow=classic;html=1;rounded=0;exitX=1;exitY=0.5;exitDx=0;exitDy=0;" edge="1" parent="1" source="TZrsvxpgwlqgJpduMYWX-21">
          <mxGeometry width="50" height="50" relative="1" as="geometry">
            <mxPoint x="1030" y="200.00000000000003" as="sourcePoint" />
            <mxPoint x="1080" y="200.00000000000003" as="targetPoint" />
          </mxGeometry>
        </mxCell>
        <mxCell id="TZrsvxpgwlqgJpduMYWX-56" value="" style="endArrow=classic;html=1;rounded=0;exitX=1;exitY=0.5;exitDx=0;exitDy=0;" edge="1" parent="1" source="TZrsvxpgwlqgJpduMYWX-7">
          <mxGeometry width="50" height="50" relative="1" as="geometry">
            <mxPoint x="550" y="217.50000000000003" as="sourcePoint" />
            <mxPoint x="600" y="217.50000000000003" as="targetPoint" />
          </mxGeometry>
        </mxCell>
        <mxCell id="TZrsvxpgwlqgJpduMYWX-57" value="" style="endArrow=classic;html=1;rounded=0;" edge="1" parent="1">
          <mxGeometry width="50" height="50" relative="1" as="geometry">
            <mxPoint x="70" y="224.29000000000002" as="sourcePoint" />
            <mxPoint x="120" y="224.29000000000002" as="targetPoint" />
          </mxGeometry>
        </mxCell>
        <mxCell id="TZrsvxpgwlqgJpduMYWX-59" value="" style="endArrow=classic;html=1;rounded=0;exitX=1;exitY=0.5;exitDx=0;exitDy=0;" edge="1" parent="1" source="TZrsvxpgwlqgJpduMYWX-8">
          <mxGeometry width="50" height="50" relative="1" as="geometry">
            <mxPoint x="550" y="249.29" as="sourcePoint" />
            <mxPoint x="600" y="249.29000000000002" as="targetPoint" />
          </mxGeometry>
        </mxCell>
        <mxCell id="TZrsvxpgwlqgJpduMYWX-60" value="" style="endArrow=classic;html=1;rounded=0;" edge="1" parent="1">
          <mxGeometry width="50" height="50" relative="1" as="geometry">
            <mxPoint x="460" y="359.29" as="sourcePoint" />
            <mxPoint x="510" y="359.29" as="targetPoint" />
          </mxGeometry>
        </mxCell>
        <mxCell id="TZrsvxpgwlqgJpduMYWX-61" value="" style="endArrow=classic;html=1;rounded=0;exitX=1;exitY=0.5;exitDx=0;exitDy=0;" edge="1" parent="1" source="TZrsvxpgwlqgJpduMYWX-43">
          <mxGeometry width="50" height="50" relative="1" as="geometry">
            <mxPoint x="1590" y="200.00000000000003" as="sourcePoint" />
            <mxPoint x="1640" y="200.00000000000003" as="targetPoint" />
          </mxGeometry>
        </mxCell>
        <mxCell id="TZrsvxpgwlqgJpduMYWX-62" value="" style="endArrow=classic;html=1;rounded=0;entryX=0.377;entryY=1.034;entryDx=0;entryDy=0;entryPerimeter=0;" edge="1" parent="1" target="TZrsvxpgwlqgJpduMYWX-43">
          <mxGeometry width="50" height="50" relative="1" as="geometry">
            <mxPoint x="970" y="359.29" as="sourcePoint" />
            <mxPoint x="1020" y="359.29" as="targetPoint" />
            <Array as="points">
              <mxPoint x="1480" y="359" />
            </Array>
          </mxGeometry>
        </mxCell>
        <mxCell id="TZrsvxpgwlqgJpduMYWX-63" value="" style="endArrow=classic;html=1;rounded=0;entryX=0;entryY=0.5;entryDx=0;entryDy=0;" edge="1" parent="1" target="TZrsvxpgwlqgJpduMYWX-43">
          <mxGeometry width="50" height="50" relative="1" as="geometry">
            <mxPoint x="1360" y="191.79000000000002" as="sourcePoint" />
            <mxPoint x="1410" y="191.79000000000002" as="targetPoint" />
          </mxGeometry>
        </mxCell>
        <mxCell id="TZrsvxpgwlqgJpduMYWX-64" value="" style="endArrow=classic;html=1;rounded=0;entryX=0.65;entryY=-0.009;entryDx=0;entryDy=0;entryPerimeter=0;" edge="1" parent="1" target="TZrsvxpgwlqgJpduMYWX-43">
          <mxGeometry width="50" height="50" relative="1" as="geometry">
            <mxPoint x="1720" y="198.57000000000002" as="sourcePoint" />
            <mxPoint x="1520" y="80" as="targetPoint" />
            <Array as="points">
              <mxPoint x="1800" y="199" />
              <mxPoint x="1800" y="80" />
              <mxPoint x="1518" y="80" />
            </Array>
          </mxGeometry>
        </mxCell>
        <mxCell id="TZrsvxpgwlqgJpduMYWX-65" value="" style="endArrow=classic;html=1;rounded=0;entryX=1;entryY=0.5;entryDx=0;entryDy=0;" edge="1" parent="1" target="TZrsvxpgwlqgJpduMYWX-48">
          <mxGeometry width="50" height="50" relative="1" as="geometry">
            <mxPoint x="1800" y="200" as="sourcePoint" />
            <mxPoint x="1800" y="520" as="targetPoint" />
            <Array as="points">
              <mxPoint x="1800" y="500" />
            </Array>
          </mxGeometry>
        </mxCell>
        <mxCell id="TZrsvxpgwlqgJpduMYWX-67" value="" style="endArrow=classic;html=1;rounded=0;" edge="1" parent="1">
          <mxGeometry width="50" height="50" relative="1" as="geometry">
            <mxPoint x="270" y="470" as="sourcePoint" />
            <mxPoint x="270" y="410" as="targetPoint" />
          </mxGeometry>
        </mxCell>
        <mxCell id="TZrsvxpgwlqgJpduMYWX-68" value="" style="endArrow=classic;html=1;rounded=0;" edge="1" parent="1">
          <mxGeometry width="50" height="50" relative="1" as="geometry">
            <mxPoint x="70" y="334.29" as="sourcePoint" />
            <mxPoint x="120" y="334.29" as="targetPoint" />
          </mxGeometry>
        </mxCell>
        <mxCell id="TZrsvxpgwlqgJpduMYWX-71" value="" style="endArrow=classic;html=1;rounded=0;entryX=1;entryY=0.5;entryDx=0;entryDy=0;" edge="1" parent="1" target="TZrsvxpgwlqgJpduMYWX-10">
          <mxGeometry width="50" height="50" relative="1" as="geometry">
            <mxPoint x="760" y="245.50000000000003" as="sourcePoint" />
            <mxPoint x="400" y="323" as="targetPoint" />
            <Array as="points">
              <mxPoint x="780" y="245" />
              <mxPoint x="780" y="330" />
            </Array>
          </mxGeometry>
        </mxCell>
        <mxCell id="TZrsvxpgwlqgJpduMYWX-72" value="" style="endArrow=classic;html=1;rounded=0;" edge="1" parent="1">
          <mxGeometry width="50" height="50" relative="1" as="geometry">
            <mxPoint x="739.29" y="470" as="sourcePoint" />
            <mxPoint x="739.29" y="410" as="targetPoint" />
          </mxGeometry>
        </mxCell>
        <mxCell id="TZrsvxpgwlqgJpduMYWX-73" value="" style="endArrow=classic;html=1;rounded=0;entryX=0;entryY=0.5;entryDx=0;entryDy=0;exitX=1;exitY=0.5;exitDx=0;exitDy=0;" edge="1" parent="1" source="TZrsvxpgwlqgJpduMYWX-19" target="TZrsvxpgwlqgJpduMYWX-25">
          <mxGeometry width="50" height="50" relative="1" as="geometry">
            <mxPoint x="790" y="220" as="sourcePoint" />
            <mxPoint x="830" y="190" as="targetPoint" />
            <Array as="points">
              <mxPoint x="840" y="250" />
              <mxPoint x="840" y="360" />
            </Array>
          </mxGeometry>
        </mxCell>
        <mxCell id="TZrsvxpgwlqgJpduMYWX-74" value="" style="endArrow=classic;html=1;rounded=0;entryX=0;entryY=0.5;entryDx=0;entryDy=0;exitX=1;exitY=0.5;exitDx=0;exitDy=0;" edge="1" parent="1" source="TZrsvxpgwlqgJpduMYWX-19" target="TZrsvxpgwlqgJpduMYWX-21">
          <mxGeometry width="50" height="50" relative="1" as="geometry">
            <mxPoint x="790" y="217.5" as="sourcePoint" />
            <mxPoint x="840" y="167.5" as="targetPoint" />
          </mxGeometry>
        </mxCell>
        <mxCell id="TZrsvxpgwlqgJpduMYWX-75" value="" style="endArrow=classic;html=1;rounded=0;entryX=0;entryY=0.5;entryDx=0;entryDy=0;exitX=1;exitY=0.5;exitDx=0;exitDy=0;" edge="1" parent="1" source="TZrsvxpgwlqgJpduMYWX-19" target="TZrsvxpgwlqgJpduMYWX-27">
          <mxGeometry width="50" height="50" relative="1" as="geometry">
            <mxPoint x="790" y="220" as="sourcePoint" />
            <mxPoint x="840" y="170" as="targetPoint" />
          </mxGeometry>
        </mxCell>
        <mxCell id="TZrsvxpgwlqgJpduMYWX-76" value="" style="endArrow=classic;html=1;rounded=0;entryX=1;entryY=0.5;entryDx=0;entryDy=0;exitX=0;exitY=0.5;exitDx=0;exitDy=0;" edge="1" parent="1" source="TZrsvxpgwlqgJpduMYWX-26" target="TZrsvxpgwlqgJpduMYWX-9">
          <mxGeometry width="50" height="50" relative="1" as="geometry">
            <mxPoint x="780" y="240" as="sourcePoint" />
            <mxPoint x="830" y="190" as="targetPoint" />
          </mxGeometry>
        </mxCell>
      </root>
    </mxGraphModel>
  </diagram>
</mxfile>
